<?xml version="1.0" encoding="UTF-8"?>
<svg xmlns="http://www.w3.org/2000/svg" xmlns:xlink="http://www.w3.org/1999/xlink" width="19px" height="19px" viewBox="0 0 19 19" version="1.1">
<g id="surface1">
<path style="fill-rule:nonzero;fill:rgb(100%,100%,100%);fill-opacity:1;stroke-width:1.837924;stroke-linecap:butt;stroke-linejoin:miter;stroke:rgb(0%,0%,0%);stroke-opacity:1;stroke-miterlimit:4;" d="M 110.213928 405.027149 L 117.533007 600.421886 C 117.533007 600.421886 117.533007 604.122544 120.000112 604.122544 C 122.467217 604.122544 122.467217 600.421886 122.467217 600.421886 L 129.786296 405.027149 " transform="matrix(0.0475,0,0,0.0475,3.799995,-9.734883)"/>
<path style="fill-rule:nonzero;fill:rgb(100%,100%,100%);fill-opacity:1;stroke-width:1.837924;stroke-linecap:butt;stroke-linejoin:miter;stroke:rgb(0%,0%,0%);stroke-opacity:1;stroke-miterlimit:4;" d="M 101.496823 468.102807 C 90.230375 492.773859 99.934323 512.839649 88.667875 534.303465 C 77.401428 555.76728 84.473796 573.448201 83.733665 583.316623 C 82.993533 593.185044 74.934323 595.981096 76.908007 598.201491 C 78.963928 600.504123 87.434323 595.981096 90.723796 582.905438 C 94.01327 569.747544 86.118533 562.263991 99.605375 535.865965 C 113.092217 509.550175 102.401428 497.70807 115.970507 474.188333 " transform="matrix(0.0475,0,0,0.0475,3.799995,-9.734883)"/>
<path style="fill-rule:nonzero;fill:rgb(100%,100%,100%);fill-opacity:1;stroke-width:1.837924;stroke-linecap:butt;stroke-linejoin:miter;stroke:rgb(0%,0%,0%);stroke-opacity:1;stroke-miterlimit:4;" d="M 129.786296 405.027149 L 122.467217 209.550175 C 122.467217 209.550175 122.467217 205.849517 120.000112 205.849517 C 117.533007 205.849517 117.533007 209.550175 117.533007 209.550175 L 110.213928 405.027149 " transform="matrix(0.0475,0,0,0.0475,3.799995,-9.734883)"/>
<path style="fill-rule:nonzero;fill:rgb(100%,100%,100%);fill-opacity:1;stroke-width:1.837924;stroke-linecap:butt;stroke-linejoin:miter;stroke:rgb(0%,0%,0%);stroke-opacity:1;stroke-miterlimit:4;" d="M 138.503401 341.869254 C 149.769849 317.280438 140.065901 297.132412 151.332349 275.668596 C 162.598796 254.20478 155.526428 236.523859 156.266559 226.655438 C 157.006691 216.787017 165.065901 214.073201 163.092217 211.852807 C 161.036296 209.467938 152.565901 214.073201 149.276428 227.148859 C 145.986954 240.224517 153.881691 247.790307 140.394849 274.106096 C 126.908007 300.421886 137.598796 312.346228 124.029717 335.783728 " transform="matrix(0.0475,0,0,0.0475,3.799995,-9.734883)"/>
<path style="fill-rule:nonzero;fill:rgb(100%,100%,100%);fill-opacity:1;stroke-width:1.837924;stroke-linecap:butt;stroke-linejoin:miter;stroke:rgb(0%,0%,0%);stroke-opacity:1;stroke-miterlimit:4;" d="M 120.000112 395.158728 L -75.394625 402.560044 C -75.394625 402.560044 -79.095283 402.560044 -79.095283 405.027149 C -79.095283 407.412017 -75.394625 407.412017 -75.394625 407.412017 L 120.000112 414.813333 " transform="matrix(0.0475,0,0,0.0475,3.799995,-9.734883)"/>
<path style="fill-rule:nonzero;fill:rgb(100%,100%,100%);fill-opacity:1;stroke-width:1.837924;stroke-linecap:butt;stroke-linejoin:miter;stroke:rgb(0%,0%,0%);stroke-opacity:1;stroke-miterlimit:4;" d="M 56.842217 386.523859 C 32.335638 375.257412 12.187612 384.961359 -9.276204 373.694912 C -30.74002 362.428465 -48.420941 369.418596 -58.289362 368.678465 C -68.157783 367.938333 -70.871599 359.879123 -73.091993 361.935044 C -75.476862 363.908728 -70.871599 372.379123 -57.795941 375.668596 C -44.720283 379.040307 -37.154493 371.14557 -10.838704 384.632412 C 15.477086 398.119254 27.319191 387.346228 50.838928 400.915307 " transform="matrix(0.0475,0,0,0.0475,3.799995,-9.734883)"/>
<path style="fill-rule:nonzero;fill:rgb(100%,100%,100%);fill-opacity:1;stroke-width:1.837924;stroke-linecap:butt;stroke-linejoin:miter;stroke:rgb(0%,0%,0%);stroke-opacity:1;stroke-miterlimit:4;" d="M 120.000112 414.813333 L 315.394849 407.412017 C 315.394849 407.412017 319.095507 407.412017 319.095507 405.027149 C 319.095507 402.560044 315.394849 402.560044 315.394849 402.560044 L 120.000112 395.158728 " transform="matrix(0.0475,0,0,0.0475,3.799995,-9.734883)"/>
<path style="fill-rule:nonzero;fill:rgb(100%,100%,100%);fill-opacity:1;stroke-width:1.837924;stroke-linecap:butt;stroke-linejoin:miter;stroke:rgb(0%,0%,0%);stroke-opacity:1;stroke-miterlimit:4;" d="M 183.158007 423.448201 C 207.664586 434.796886 227.812612 425.092938 249.276428 436.359386 C 270.740244 447.543596 288.421165 440.471228 298.289586 441.293596 C 308.158007 442.033728 310.871823 450.092938 313.092217 448.037017 C 315.477086 445.981096 310.871823 437.592938 297.796165 434.303465 C 284.720507 431.013991 277.154717 438.908728 250.838928 425.421886 C 224.523138 411.852807 212.681033 422.625833 189.161296 409.056754 " transform="matrix(0.0475,0,0,0.0475,3.799995,-9.734883)"/>
<path style="fill-rule:nonzero;fill:rgb(100%,100%,100%);fill-opacity:1;stroke-width:1.837924;stroke-linecap:butt;stroke-linejoin:miter;stroke:rgb(0%,0%,0%);stroke-opacity:1;stroke-miterlimit:4;" d="M 113.092217 398.037017 L -19.884756 541.540307 C -19.884756 541.540307 -22.516335 544.089649 -20.789362 545.816623 C -19.062388 547.543596 -16.430809 544.912017 -16.430809 544.912017 L 126.908007 411.935044 " transform="matrix(0.0475,0,0,0.0475,3.799995,-9.734883)"/>
<path style="fill-rule:nonzero;fill:rgb(100%,100%,100%);fill-opacity:1;stroke-width:1.837924;stroke-linecap:butt;stroke-linejoin:miter;stroke:rgb(0%,0%,0%);stroke-opacity:1;stroke-miterlimit:4;" d="M 62.352086 436.606096 C 36.940901 445.981096 29.539586 467.033728 6.431033 474.352807 C -16.67752 481.507412 -24.161072 499.023859 -31.726862 505.438333 C -39.210414 511.852807 -46.776204 508.152149 -47.022914 511.194912 C -47.187388 514.237675 -38.059099 517.033728 -26.463704 510.043596 C -14.868309 503.135701 -15.11502 492.280438 13.092217 483.152149 C 41.217217 474.106096 42.039586 458.152149 68.190901 451.07978 " transform="matrix(0.0475,0,0,0.0475,3.799995,-9.734883)"/>
<path style="fill-rule:nonzero;fill:rgb(100%,100%,100%);fill-opacity:1;stroke-width:1.837924;stroke-linecap:butt;stroke-linejoin:miter;stroke:rgb(0%,0%,0%);stroke-opacity:1;stroke-miterlimit:4;" d="M 126.908007 411.935044 L 259.88498 268.513991 C 259.88498 268.513991 262.516559 265.964649 260.789586 264.155438 C 259.062612 262.428465 256.431033 265.060044 256.431033 265.060044 L 113.092217 398.037017 " transform="matrix(0.0475,0,0,0.0475,3.799995,-9.734883)"/>
<path style="fill-rule:nonzero;fill:rgb(100%,100%,100%);fill-opacity:1;stroke-width:1.837924;stroke-linecap:butt;stroke-linejoin:miter;stroke:rgb(0%,0%,0%);stroke-opacity:1;stroke-miterlimit:4;" d="M 177.648138 373.365965 C 203.059323 363.990965 210.460638 342.938333 233.569191 335.701491 C 256.677744 328.464649 264.161296 311.030438 271.727086 304.533728 C 279.210638 298.119254 286.776428 301.902149 287.023138 298.859386 C 287.187612 295.734386 278.059323 293.02057 266.463928 299.928465 C 254.868533 306.918596 255.115244 317.773859 226.908007 326.819912 C 198.783007 335.948201 197.960638 351.902149 171.809323 358.974517 " transform="matrix(0.0475,0,0,0.0475,3.799995,-9.734883)"/>
<path style="fill-rule:nonzero;fill:rgb(100%,100%,100%);fill-opacity:1;stroke-width:1.837924;stroke-linecap:butt;stroke-linejoin:miter;stroke:rgb(0%,0%,0%);stroke-opacity:1;stroke-miterlimit:4;" d="M 126.908007 398.037017 L -16.430809 265.060044 C -16.430809 265.060044 -19.062388 262.428465 -20.789362 264.155438 C -22.516335 265.964649 -19.884756 268.513991 -19.884756 268.513991 L 113.092217 411.935044 " transform="matrix(0.0475,0,0,0.0475,3.799995,-9.734883)"/>
<path style="fill-rule:nonzero;fill:rgb(100%,100%,100%);fill-opacity:1;stroke-width:1.837924;stroke-linecap:butt;stroke-linejoin:miter;stroke:rgb(0%,0%,0%);stroke-opacity:1;stroke-miterlimit:4;" d="M 88.421165 347.296886 C 78.963928 321.967938 57.911296 314.566623 50.756691 291.45807 C 43.519849 268.26728 26.003401 260.783728 19.588928 253.217938 C 13.092217 245.734386 16.957349 238.168596 13.914586 237.921886 C 10.789586 237.757412 8.07577 246.967938 14.983665 258.481096 C 21.973796 270.076491 32.829059 269.912017 41.875112 298.037017 C 50.921165 326.162017 66.957349 326.984386 73.94748 353.217938 " transform="matrix(0.0475,0,0,0.0475,3.799995,-9.734883)"/>
<path style="fill-rule:nonzero;fill:rgb(100%,100%,100%);fill-opacity:1;stroke-width:1.837924;stroke-linecap:butt;stroke-linejoin:miter;stroke:rgb(0%,0%,0%);stroke-opacity:1;stroke-miterlimit:4;" d="M 113.092217 411.935044 L 256.431033 544.912017 C 256.431033 544.912017 259.062612 547.543596 260.789586 545.816623 C 262.516559 544.089649 259.88498 541.540307 259.88498 541.540307 L 126.908007 398.037017 " transform="matrix(0.0475,0,0,0.0475,3.799995,-9.734883)"/>
<path style="fill-rule:nonzero;fill:rgb(100%,100%,100%);fill-opacity:1;stroke-width:1.837924;stroke-linecap:butt;stroke-linejoin:miter;stroke:rgb(0%,0%,0%);stroke-opacity:1;stroke-miterlimit:4;" d="M 151.579059 462.675175 C 161.036296 488.086359 182.088928 495.405438 189.243533 518.596228 C 196.480375 541.70478 213.996823 549.27057 220.411296 556.754123 C 226.908007 564.237675 223.042875 571.885701 226.085638 572.050175 C 229.210638 572.296886 231.924454 563.086359 225.016559 551.490965 C 218.026428 539.977807 207.171165 540.14228 198.125112 512.01728 C 189.079059 483.810044 173.042875 482.987675 166.052744 456.836359 " transform="matrix(0.0475,0,0,0.0475,3.799995,-9.734883)"/>
<path style="fill-rule:nonzero;fill:rgb(100%,100%,100%);fill-opacity:1;stroke-width:1.837924;stroke-linecap:butt;stroke-linejoin:miter;stroke:rgb(0%,0%,0%);stroke-opacity:1;stroke-miterlimit:4;" d="M 110.954059 401.244254 L 42.944191 584.632412 C 42.944191 584.632412 41.546165 588.086359 43.848796 588.990965 C 46.069191 589.977807 47.467217 586.523859 47.467217 586.523859 L 129.046165 408.727807 " transform="matrix(0.0475,0,0,0.0475,3.799995,-9.734883)"/>
<path style="fill-rule:nonzero;fill:rgb(100%,100%,100%);fill-opacity:1;stroke-width:1.837924;stroke-linecap:butt;stroke-linejoin:miter;stroke:rgb(0%,0%,0%);stroke-opacity:1;stroke-miterlimit:4;" d="M 78.717217 456.260701 C 58.980375 474.681754 60.213928 496.967938 41.628401 512.510701 C 22.960638 527.971228 22.713928 547.050175 18.273138 555.849517 C 13.832349 564.731096 5.279717 564.155438 6.348796 567.033728 C 7.335638 569.912017 16.792875 568.925175 24.852086 558.152149 C 32.911296 547.296886 28.552744 537.346228 51.085638 518.102807 C 73.618533 499.023859 68.273138 483.89228 89.736954 467.362675 " transform="matrix(0.0475,0,0,0.0475,3.799995,-9.734883)"/>
<path style="fill-rule:nonzero;fill:rgb(100%,100%,100%);fill-opacity:1;stroke-width:1.837924;stroke-linecap:butt;stroke-linejoin:miter;stroke:rgb(0%,0%,0%);stroke-opacity:1;stroke-miterlimit:4;" d="M 129.046165 408.727807 L 197.056033 225.421886 C 197.056033 225.421886 198.454059 221.967938 196.151428 220.981096 C 193.931033 220.076491 192.533007 223.530438 192.533007 223.530438 L 110.954059 401.244254 " transform="matrix(0.0475,0,0,0.0475,3.799995,-9.734883)"/>
<path style="fill-rule:nonzero;fill:rgb(100%,100%,100%);fill-opacity:1;stroke-width:1.837924;stroke-linecap:butt;stroke-linejoin:miter;stroke:rgb(0%,0%,0%);stroke-opacity:1;stroke-miterlimit:4;" d="M 161.283007 353.793596 C 181.019849 335.290307 179.786296 313.086359 198.371823 297.543596 C 217.039586 282.000833 217.286296 262.921886 221.727086 254.122544 C 226.167875 245.323201 234.720507 245.898859 233.651428 243.02057 C 232.664586 240.060044 223.207349 241.046886 215.148138 251.902149 C 207.088928 262.675175 211.44748 272.70807 188.914586 291.869254 C 166.381691 311.030438 171.727086 326.07978 150.26327 342.609386 " transform="matrix(0.0475,0,0,0.0475,3.799995,-9.734883)"/>
<path style="fill-rule:nonzero;fill:rgb(100%,100%,100%);fill-opacity:1;stroke-width:1.837924;stroke-linecap:butt;stroke-linejoin:miter;stroke:rgb(0%,0%,0%);stroke-opacity:1;stroke-miterlimit:4;" d="M 123.783007 395.981096 L -59.522914 327.971228 C -59.522914 327.971228 -62.976862 326.490965 -63.963704 328.793596 C -64.868309 331.096228 -61.496599 332.412017 -61.496599 332.412017 L 116.217217 414.073201 " transform="matrix(0.0475,0,0,0.0475,3.799995,-9.734883)"/>
<path style="fill-rule:nonzero;fill:rgb(100%,100%,100%);fill-opacity:1;stroke-width:1.837924;stroke-linecap:butt;stroke-linejoin:miter;stroke:rgb(0%,0%,0%);stroke-opacity:1;stroke-miterlimit:4;" d="M 68.766559 363.744254 C 50.345507 343.925175 28.059323 345.158728 12.598796 326.573201 C -3.026204 307.987675 -22.022914 307.658728 -30.822256 303.217938 C -39.621599 298.777149 -39.045941 290.224517 -42.006467 291.293596 C -44.884756 292.280438 -43.897914 301.819912 -33.042651 309.879123 C -22.269625 317.856096 -12.23673 313.497544 6.842217 336.030438 C 26.085638 358.64557 41.13498 353.217938 57.664586 374.763991 " transform="matrix(0.0475,0,0,0.0475,3.799995,-9.734883)"/>
<path style="fill-rule:nonzero;fill:rgb(100%,100%,100%);fill-opacity:1;stroke-width:1.837924;stroke-linecap:butt;stroke-linejoin:miter;stroke:rgb(0%,0%,0%);stroke-opacity:1;stroke-miterlimit:4;" d="M 116.217217 414.073201 L 299.523138 482.08307 C 299.523138 482.08307 302.977086 483.481096 303.963928 481.178465 C 304.868533 478.95807 301.496823 477.477807 301.496823 477.477807 L 123.783007 395.981096 " transform="matrix(0.0475,0,0,0.0475,3.799995,-9.734883)"/>
<path style="fill-rule:nonzero;fill:rgb(100%,100%,100%);fill-opacity:1;stroke-width:1.837924;stroke-linecap:butt;stroke-linejoin:miter;stroke:rgb(0%,0%,0%);stroke-opacity:1;stroke-miterlimit:4;" d="M 171.233665 446.227807 C 189.654717 466.046886 211.940901 464.813333 227.401428 483.481096 C 243.026428 501.984386 262.023138 502.313333 270.82248 506.754123 C 279.621823 511.277149 279.046165 519.665307 282.006691 518.678465 C 284.88498 517.691623 283.898138 508.234386 273.042875 500.092938 C 262.269849 492.033728 252.236954 496.474517 233.158007 473.941623 C 213.914586 451.408728 198.865244 456.754123 182.335638 435.290307 " transform="matrix(0.0475,0,0,0.0475,3.799995,-9.734883)"/>
<path style="fill-rule:nonzero;fill:rgb(100%,100%,100%);fill-opacity:1;stroke-width:1.837924;stroke-linecap:butt;stroke-linejoin:miter;stroke:rgb(0%,0%,0%);stroke-opacity:1;stroke-miterlimit:4;" d="M 116.217217 395.981096 L -61.496599 477.477807 C -61.496599 477.477807 -64.868309 478.95807 -63.963704 481.178465 C -62.976862 483.481096 -59.522914 482.08307 -59.522914 482.08307 L 123.783007 414.073201 " transform="matrix(0.0475,0,0,0.0475,3.799995,-9.734883)"/>
<path style="fill-rule:nonzero;fill:rgb(100%,100%,100%);fill-opacity:1;stroke-width:1.837924;stroke-linecap:butt;stroke-linejoin:miter;stroke:rgb(0%,0%,0%);stroke-opacity:1;stroke-miterlimit:4;" d="M 54.621823 412.099517 C 27.565901 411.112675 12.681033 427.724517 -11.414362 425.586359 C -35.591993 423.365965 -49.161072 436.606096 -58.536072 439.731096 C -67.993309 442.856096 -73.585414 436.359386 -74.901204 439.155438 C -76.216993 441.869254 -68.815677 447.95478 -55.493309 445.981096 C -42.088704 444.007412 -38.223572 433.89228 -8.700546 436.277149 C 20.740244 438.662017 27.648138 424.188333 54.539586 427.724517 " transform="matrix(0.0475,0,0,0.0475,3.799995,-9.734883)"/>
<path style="fill-rule:nonzero;fill:rgb(100%,100%,100%);fill-opacity:1;stroke-width:1.837924;stroke-linecap:butt;stroke-linejoin:miter;stroke:rgb(0%,0%,0%);stroke-opacity:1;stroke-miterlimit:4;" d="M 123.783007 414.073201 L 301.496823 332.412017 C 301.496823 332.412017 304.868533 331.096228 303.963928 328.793596 C 302.977086 326.490965 299.523138 327.971228 299.523138 327.971228 L 116.217217 395.981096 " transform="matrix(0.0475,0,0,0.0475,3.799995,-9.734883)"/>
<path style="fill-rule:nonzero;fill:rgb(100%,100%,100%);fill-opacity:1;stroke-width:1.837924;stroke-linecap:butt;stroke-linejoin:miter;stroke:rgb(0%,0%,0%);stroke-opacity:1;stroke-miterlimit:4;" d="M 185.378401 397.872544 C 212.434323 398.859386 227.319191 382.247544 251.414586 384.467938 C 275.592217 386.606096 289.161296 373.283728 298.536296 370.240965 C 307.993533 367.198201 313.585638 373.612675 314.901428 370.816623 C 316.217217 368.102807 308.815901 362.099517 295.493533 363.990965 C 282.088928 366.046886 278.223796 376.162017 248.70077 373.777149 C 219.25998 371.310044 212.352086 385.783728 185.460638 382.247544 " transform="matrix(0.0475,0,0,0.0475,3.799995,-9.734883)"/>
<path style="fill-rule:nonzero;fill:rgb(100%,100%,100%);fill-opacity:1;stroke-width:1.837924;stroke-linecap:butt;stroke-linejoin:miter;stroke:rgb(0%,0%,0%);stroke-opacity:1;stroke-miterlimit:4;" d="M 129.046165 401.244254 L 47.467217 223.530438 C 47.467217 223.530438 46.069191 220.076491 43.848796 220.981096 C 41.546165 221.967938 42.944191 225.421886 42.944191 225.421886 L 110.954059 408.727807 " transform="matrix(0.0475,0,0,0.0475,3.799995,-9.734883)"/>
<path style="fill-rule:nonzero;fill:rgb(100%,100%,100%);fill-opacity:1;stroke-width:1.837924;stroke-linecap:butt;stroke-linejoin:miter;stroke:rgb(0%,0%,0%);stroke-opacity:1;stroke-miterlimit:4;" d="M 112.845507 339.566623 C 113.914586 312.592938 97.220507 297.70807 99.440901 273.530438 C 101.661296 249.352807 88.338928 235.783728 85.296165 226.408728 C 82.171165 216.951491 88.585638 211.359386 85.871823 210.043596 C 83.158007 208.727807 77.07248 216.129123 78.963928 229.451491 C 81.019849 242.856096 91.13498 246.721228 88.750112 276.244254 C 86.365244 305.76728 100.838928 312.592938 97.302744 339.484386 " transform="matrix(0.0475,0,0,0.0475,3.799995,-9.734883)"/>
<path style="fill-rule:nonzero;fill:rgb(100%,100%,100%);fill-opacity:1;stroke-width:1.837924;stroke-linecap:butt;stroke-linejoin:miter;stroke:rgb(0%,0%,0%);stroke-opacity:1;stroke-miterlimit:4;" d="M 110.954059 408.727807 L 192.533007 586.523859 C 192.533007 586.523859 193.931033 589.977807 196.151428 588.990965 C 198.454059 588.086359 197.056033 584.632412 197.056033 584.632412 L 129.046165 401.244254 " transform="matrix(0.0475,0,0,0.0475,3.799995,-9.734883)"/>
<path style="fill-rule:nonzero;fill:rgb(100%,100%,100%);fill-opacity:1;stroke-width:1.837924;stroke-linecap:butt;stroke-linejoin:miter;stroke:rgb(0%,0%,0%);stroke-opacity:1;stroke-miterlimit:4;" d="M 127.154717 470.405438 C 126.085638 497.461359 142.779717 512.346228 140.559323 536.441623 C 138.338928 560.537017 151.661296 574.27057 154.704059 583.64557 C 157.829059 593.02057 151.414586 598.612675 154.128401 599.928465 C 156.842217 601.326491 162.927744 593.842938 161.036296 580.602807 C 158.980375 567.198201 148.865244 563.250833 151.250112 533.727807 C 153.63498 504.287017 139.161296 497.379123 142.69748 470.487675 " transform="matrix(0.0475,0,0,0.0475,3.799995,-9.734883)"/>
<path style=" stroke:none;fill-rule:nonzero;fill:rgb(0%,0%,0%);fill-opacity:1;" d="M 9.269531 9.503906 L 9.5 15.875 L 9.730469 9.503906 "/>
<path style=" stroke:none;fill-rule:nonzero;fill:rgb(0%,0%,0%);fill-opacity:1;" d="M 8.769531 12.796875 C 8.355469 13.960938 8.792969 14.734375 8.234375 15.71875 C 8.851562 15.011719 8.445312 14.097656 8.988281 12.902344 "/>
<path style=" stroke:none;fill-rule:nonzero;fill:rgb(0%,0%,0%);fill-opacity:1;" d="M 9.335938 9.335938 L 4.992188 14.007812 L 9.664062 9.667969 "/>
<path style=" stroke:none;fill-rule:nonzero;fill:rgb(0%,0%,0%);fill-opacity:1;" d="M 9.285156 9.414062 L 7.0625 15.390625 L 9.714844 9.59375 "/>
<path style=" stroke:none;fill-rule:nonzero;fill:rgb(0%,0%,0%);fill-opacity:1;" d="M 7.5625 12.269531 C 6.734375 13.183594 6.847656 14.066406 5.953125 14.761719 C 6.796875 14.347656 6.769531 13.347656 7.726562 12.449219 "/>
<path style=" stroke:none;fill-rule:nonzero;fill:rgb(0%,0%,0%);fill-opacity:1;" d="M 9.730469 9.503906 L 9.5 3.128906 L 9.269531 9.503906 "/>
<path style=" stroke:none;fill-rule:nonzero;fill:rgb(0%,0%,0%);fill-opacity:1;" d="M 10.230469 6.203125 C 10.644531 5.042969 10.207031 4.273438 10.765625 3.285156 C 10.148438 3.988281 10.554688 4.90625 10.011719 6.105469 "/>
<path style=" stroke:none;fill-rule:nonzero;fill:rgb(0%,0%,0%);fill-opacity:1;" d="M 9.5 9.269531 L 3.128906 9.503906 L 9.5 9.734375 "/>
<path style=" stroke:none;fill-rule:nonzero;fill:rgb(0%,0%,0%);fill-opacity:1;" d="M 6.203125 8.773438 C 5.039062 8.355469 4.269531 8.792969 3.285156 8.238281 C 3.988281 8.855469 4.90625 8.449219 6.101562 8.988281 "/>
<path style=" stroke:none;fill-rule:nonzero;fill:rgb(0%,0%,0%);fill-opacity:1;" d="M 6.652344 11.316406 C 5.535156 11.84375 5.300781 12.699219 4.210938 13.003906 C 5.148438 12.945312 5.503906 12.007812 6.734375 11.542969 "/>
<path style=" stroke:none;fill-rule:nonzero;fill:rgb(0%,0%,0%);fill-opacity:1;" d="M 9.664062 9.335938 L 4.992188 4.996094 L 9.335938 9.667969 "/>
<path style=" stroke:none;fill-rule:nonzero;fill:rgb(0%,0%,0%);fill-opacity:1;" d="M 7.6875 6.65625 C 7.15625 5.539062 6.300781 5.300781 6 4.210938 C 6.058594 5.148438 6.996094 5.507812 7.460938 6.734375 "/>
<path style=" stroke:none;fill-rule:nonzero;fill:rgb(0%,0%,0%);fill-opacity:1;" d="M 9.714844 9.59375 L 11.9375 3.613281 L 9.285156 9.414062 "/>
<path style=" stroke:none;fill-rule:nonzero;fill:rgb(0%,0%,0%);fill-opacity:1;" d="M 9.589844 9.285156 L 3.613281 7.0625 L 9.410156 9.714844 "/>
<path style=" stroke:none;fill-rule:nonzero;fill:rgb(0%,0%,0%);fill-opacity:1;" d="M 6.734375 7.566406 C 5.820312 6.738281 4.941406 6.847656 4.242188 5.957031 C 4.65625 6.796875 5.660156 6.769531 6.554688 7.726562 "/>
<path style=" stroke:none;fill-rule:nonzero;fill:rgb(0%,0%,0%);fill-opacity:1;" d="M 9.410156 9.285156 L 3.613281 11.941406 L 9.589844 9.714844 "/>
<path style=" stroke:none;fill-rule:nonzero;fill:rgb(0%,0%,0%);fill-opacity:1;" d="M 6.175781 10.089844 C 4.941406 10.148438 4.398438 10.851562 3.273438 10.714844 C 4.164062 11.015625 4.851562 10.285156 6.164062 10.328125 "/>
<path style=" stroke:none;fill-rule:nonzero;fill:rgb(0%,0%,0%);fill-opacity:1;" d="M 9.714844 9.414062 L 7.0625 3.613281 L 9.285156 9.59375 "/>
<path style=" stroke:none;fill-rule:nonzero;fill:rgb(0%,0%,0%);fill-opacity:1;" d="M 8.914062 6.179688 C 8.851562 4.941406 8.152344 4.398438 8.289062 3.273438 C 7.988281 4.164062 8.714844 4.851562 8.675781 6.167969 "/>
<path style=" stroke:none;fill-rule:nonzero;fill:rgb(0%,0%,0%);fill-opacity:1;" d="M 9.5 9.734375 L 15.871094 9.503906 L 9.5 9.269531 "/>
<path style=" stroke:none;fill-rule:nonzero;fill:rgb(0%,0%,0%);fill-opacity:1;" d="M 12.796875 10.234375 C 13.960938 10.648438 14.730469 10.210938 15.714844 10.769531 C 15.011719 10.148438 14.09375 10.558594 12.898438 10.015625 "/>
<path style=" stroke:none;fill-rule:nonzero;fill:rgb(0%,0%,0%);fill-opacity:1;" d="M 9.664062 9.667969 L 14.007812 4.996094 L 9.335938 9.335938 "/>
<path style=" stroke:none;fill-rule:nonzero;fill:rgb(0%,0%,0%);fill-opacity:1;" d="M 12.347656 7.6875 C 13.464844 7.15625 13.699219 6.300781 14.789062 6 C 13.851562 6.0625 13.496094 6.996094 12.265625 7.460938 "/>
<path style=" stroke:none;fill-rule:nonzero;fill:rgb(0%,0%,0%);fill-opacity:1;" d="M 9.335938 9.667969 L 14.007812 14.007812 L 9.664062 9.335938 "/>
<path style=" stroke:none;fill-rule:nonzero;fill:rgb(0%,0%,0%);fill-opacity:1;" d="M 11.3125 12.351562 C 11.84375 13.464844 12.699219 13.703125 13 14.792969 C 12.941406 13.859375 12.003906 13.5 11.539062 12.269531 "/>
<path style=" stroke:none;fill-rule:nonzero;fill:rgb(0%,0%,0%);fill-opacity:1;" d="M 11.4375 6.734375 C 12.265625 5.820312 12.152344 4.941406 13.046875 4.242188 C 12.203125 4.65625 12.230469 5.660156 11.273438 6.558594 "/>
<path style=" stroke:none;fill-rule:nonzero;fill:rgb(0%,0%,0%);fill-opacity:1;" d="M 9.410156 9.714844 L 15.386719 11.941406 L 9.589844 9.285156 "/>
<path style=" stroke:none;fill-rule:nonzero;fill:rgb(0%,0%,0%);fill-opacity:1;" d="M 12.265625 11.4375 C 13.179688 12.265625 14.058594 12.160156 14.757812 13.050781 C 14.34375 12.207031 13.339844 12.234375 12.445312 11.277344 "/>
<path style=" stroke:none;fill-rule:nonzero;fill:rgb(0%,0%,0%);fill-opacity:1;" d="M 9.589844 9.714844 L 15.386719 7.0625 L 9.410156 9.285156 "/>
<path style=" stroke:none;fill-rule:nonzero;fill:rgb(0%,0%,0%);fill-opacity:1;" d="M 12.824219 8.914062 C 14.058594 8.851562 14.601562 8.15625 15.726562 8.292969 C 14.835938 7.988281 14.148438 8.714844 12.835938 8.675781 "/>
<path style=" stroke:none;fill-rule:nonzero;fill:rgb(0%,0%,0%);fill-opacity:1;" d="M 9.285156 9.59375 L 11.9375 15.390625 L 9.714844 9.414062 "/>
<path style=" stroke:none;fill-rule:nonzero;fill:rgb(0%,0%,0%);fill-opacity:1;" d="M 10.085938 12.828125 C 10.148438 14.058594 10.847656 14.605469 10.710938 15.730469 C 11.011719 14.839844 10.285156 14.152344 10.324219 12.839844 "/>
<path style="fill-rule:nonzero;fill:rgb(100%,100%,100%);fill-opacity:1;stroke-width:1;stroke-linecap:butt;stroke-linejoin:miter;stroke:rgb(0%,0%,0%);stroke-opacity:1;stroke-miterlimit:4;" d="M 64.977954 0.0222325 C 64.977954 35.924644 35.912443 64.982109 0.0000914201 64.982109 C -35.91226 64.982109 -64.977771 35.924644 -64.977771 0.0222325 C -64.977771 -35.880179 -35.91226 -65.004752 0.0000914201 -65.004752 C 35.912443 -65.004752 64.977954 -35.880179 64.977954 0.0222325 Z M 64.977954 0.0222325 " transform="matrix(0.0581929,0,0,0.058209,9.499995,9.502612)"/>
</g>
</svg>
